<?xml version="1.0" encoding="UTF-8"?>
<svg xmlns="http://www.w3.org/2000/svg" xmlns:xlink="http://www.w3.org/1999/xlink" width="24px" height="24px" viewBox="0 0 24 24" version="1.1">
    <!-- Generator: Sketch 50 (54983) - http://www.bohemiancoding.com/sketch -->
    <title>012 - HTML</title>
    <desc>Created with Sketch.</desc>
    <defs/>
    <g id="Page-1" stroke="none" stroke-width="1" fill="none" fill-rule="evenodd">
        <g id="012---HTML" fill="#40464C" fill-rule="nonzero">
            <path d="M6.205,11.996 L7.832,9.555 C8.138,9.096 8.014,8.474 7.555,8.168 C7.095,7.861 6.474,7.985 6.168,8.445 L4.168,11.445 C3.963,11.752 3.948,12.146 4.122,12.471 C4.149,12.521 4.18,12.568 4.214,12.612 L6.168,15.552 C6.361,15.842 6.678,15.999 7.002,15.999 C7.192,15.999 7.384,15.945 7.554,15.832 C8.014,15.526 8.139,14.906 7.834,14.446 L6.206,11.995 L6.205,11.996 Z" id="Shape"/>
            <path d="M17.832,8.445 C17.524,7.985 16.904,7.861 16.445,8.168 C15.986,8.474 15.862,9.095 16.168,9.555 L17.798,12 L16.168,14.445 C15.862,14.904 15.986,15.526 16.445,15.832 C16.615,15.946 16.808,16 16.999,16 C17.322,16 17.639,15.844 17.832,15.555 L19.832,12.555 C20.056,12.219 20.056,11.782 19.832,11.446 L17.832,8.446 L17.832,8.445 Z" id="Shape"/>
            <path d="M13.316,8.051 C12.791,7.874 12.226,8.16 12.051,8.683 L10.051,14.683 C9.876,15.207 10.159,15.773 10.683,15.948 C10.788,15.983 10.895,16 10.999,16 C11.418,16 11.808,15.735 11.948,15.316 L13.948,9.316 C14.123,8.792 13.84,8.226 13.316,8.051 Z" id="Shape"/>
            <path d="M20.003,0 L3.997,0 C1.793,0 0,1.793 0,3.997 L0,20.003 C0,22.207 1.793,24 3.997,24 L20.003,24 C22.207,24 24,22.207 24,20.003 L24,3.997 C24,1.793 22.207,0 20.003,0 Z M22,20.003 C22,21.104 21.104,22 20.003,22 L3.997,22 C2.896,22 2,21.104 2,20.003 L2,3.997 C2,2.896 2.896,2 3.997,2 L20.003,2 C21.104,2 22,2.896 22,3.997 L22,20.003 Z" id="Shape"/>
        </g>
    </g>
</svg>
